<svg width="179" height="32" viewBox="0 0 179 32" fill="none" xmlns="http://www.w3.org/2000/svg">
<path d="M8.74219 26.4297C7.85677 26.4297 6.97135 26.2734 6.08594 25.9609C5.22656 25.6484 4.39323 25.1927 3.58594 24.5938C2.77865 23.9688 2.07552 23.1484 1.47656 22.1328C0.877604 21.1172 0.552083 19.9062 0.5 18.5V10.1797C0.5 9.45052 0.760417 8.85156 1.28125 8.38281C1.82812 7.88802 2.46615 7.64062 3.19531 7.64062C4.75781 7.77083 5.60417 8.61719 5.73438 10.1797V18.1875C5.76042 18.8125 5.89062 19.3464 6.125 19.7891C6.35938 20.2057 6.61979 20.5443 6.90625 20.8047C7.19271 21.0391 7.47917 21.2214 7.76562 21.3516C8.07812 21.4557 8.39062 21.5078 8.70312 21.5078C9.01562 21.5078 9.32812 21.4557 9.64062 21.3516C9.95312 21.2214 10.2526 21.0391 10.5391 20.8047C10.8255 20.5443 11.0859 20.2057 11.3203 19.7891C11.5547 19.3464 11.6719 18.8125 11.6719 18.1875V10.1797C11.6719 9.45052 11.9323 8.85156 12.4531 8.38281C13 7.88802 13.638 7.64062 14.3672 7.64062C15.9297 7.77083 16.7891 8.61719 16.9453 10.1797V18.1875C16.9714 18.8125 17.1016 19.3333 17.3359 19.75C17.5703 20.1927 17.8307 20.5443 18.1172 20.8047C18.4036 21.0391 18.6901 21.2214 18.9766 21.3516C19.2891 21.4557 19.6016 21.5078 19.9141 21.5078C20.2266 21.5078 20.5391 21.4557 20.8516 21.3516C21.1641 21.2214 21.4635 21.0391 21.75 20.8047C22.0365 20.5443 22.2969 20.2057 22.5312 19.7891C22.7656 19.3464 22.8828 18.8125 22.8828 18.1875V10.1797C22.8828 9.45052 23.1432 8.85156 23.6641 8.38281C24.2109 7.88802 24.849 7.64062 25.5781 7.64062C27.1406 7.77083 28 8.61719 28.1562 10.1797V18.5C28.1562 19.9062 27.8438 21.1172 27.2188 22.1328C26.6198 23.1484 25.9167 23.9688 25.1094 24.5938C24.3281 25.1927 23.4948 25.6484 22.6094 25.9609C21.75 26.2734 20.8646 26.4297 19.9531 26.4297C19.0677 26.4297 18.1823 26.2734 17.2969 25.9609C16.4375 25.6484 15.6042 25.1797 14.7969 24.5547C14.6406 24.4505 14.4974 24.3333 14.3672 24.2031C14.2109 24.3333 14.0677 24.4505 13.9375 24.5547C13.1302 25.1797 12.2839 25.6484 11.3984 25.9609C10.5391 26.2734 9.65365 26.4297 8.74219 26.4297ZM37.3359 26.5469C36.2943 26.5469 35.4219 26.1823 34.7188 25.4531C34.0417 24.724 33.7031 23.8125 33.7031 22.7188C33.7031 21.625 34.0417 20.7135 34.7188 19.9844C35.4219 19.2552 36.2943 18.8906 37.3359 18.8906C38.3776 18.8906 39.25 19.2552 39.9531 19.9844C40.6562 20.7135 41.0078 21.625 41.0078 22.7188C41.0078 23.8125 40.6562 24.724 39.9531 25.4531C39.25 26.1823 38.3776 26.5469 37.3359 26.5469ZM51.5547 29.3203C51.3984 30.8828 50.5391 31.7292 48.9766 31.8594C48.2474 31.8594 47.6094 31.612 47.0625 31.1172C46.5417 30.6484 46.2812 30.0495 46.2812 29.3203V10.7266C46.3073 9.9974 46.5807 9.39844 47.1016 8.92969C47.6224 8.4349 48.2474 8.1875 48.9766 8.1875H65.3828C67.6745 8.26562 69.4062 8.8125 70.5781 9.82812C71.75 10.8177 72.5964 11.9505 73.1172 13.2266C73.638 14.4766 73.8984 15.7526 73.8984 17.0547C73.8984 18.4089 73.638 19.724 73.1172 21C72.6224 22.25 71.776 23.3828 70.5781 24.3984C69.4062 25.388 67.9089 25.8958 66.0859 25.9219H56.2422C55.513 25.9219 54.901 25.6615 54.4062 25.1406C53.8854 24.6458 53.625 24.0339 53.625 23.3047C53.625 22.5755 53.8724 21.9635 54.3672 21.4688C54.888 20.9479 55.513 20.6875 56.2422 20.6875H66.2422C66.737 20.6875 67.1667 20.4922 67.5312 20.1016C67.8958 19.6849 68.1562 19.2161 68.3125 18.6953C68.4948 18.1484 68.5859 17.6146 68.5859 17.0938C68.5859 16.5469 68.4948 16.013 68.3125 15.4922C68.1562 14.9453 67.8958 14.4766 67.5312 14.0859C67.1667 13.6693 66.737 13.4479 66.2422 13.4219H52.5703C51.8932 13.4479 51.5547 13.7865 51.5547 14.4375V29.3203ZM86.75 25.9219C84.4583 25.8438 82.7266 25.3099 81.5547 24.3203C80.3828 23.3047 79.5365 22.1719 79.0156 20.9219C78.4948 19.6458 78.2344 18.3568 78.2344 17.0547C78.2344 15.7005 78.4818 14.3984 78.9766 13.1484C79.4974 11.8724 80.3438 10.7396 81.5156 9.75C82.7135 8.73438 84.224 8.21354 86.0469 8.1875H98.7031C100.526 8.21354 102.023 8.73438 103.195 9.75C104.393 10.7396 105.24 11.8724 105.734 13.1484C106.255 14.3984 106.516 15.7005 106.516 17.0547C106.516 18.3568 106.255 19.6458 105.734 20.9219C105.214 22.1719 104.367 23.3047 103.195 24.3203C102.023 25.3099 100.292 25.8438 98 25.9219H86.75ZM85.8906 13.4219C85.3958 13.4219 84.9661 13.6302 84.6016 14.0469C84.237 14.4375 83.9635 14.9062 83.7812 15.4531C83.625 15.974 83.5469 16.4948 83.5469 17.0156C83.5469 17.5625 83.625 18.1094 83.7812 18.6562C83.9635 19.1771 84.237 19.6458 84.6016 20.0625C84.9661 20.4531 85.3958 20.6615 85.8906 20.6875H98.8594C99.3542 20.6615 99.7839 20.4531 100.148 20.0625C100.513 19.6458 100.773 19.1771 100.93 18.6562C101.112 18.1094 101.203 17.5625 101.203 17.0156C101.203 16.4948 101.112 15.974 100.93 15.4531C100.773 14.9062 100.513 14.4375 100.148 14.0469C99.7839 13.6302 99.3542 13.4219 98.8594 13.4219H85.8906ZM113.703 7.79688C114.406 7.82292 115.005 8.08333 115.5 8.57812C115.995 9.04688 116.255 9.63281 116.281 10.3359V23.8516C116.125 25.4141 115.266 26.2604 113.703 26.3906C112.974 26.3906 112.336 26.1562 111.789 25.6875C111.268 25.1927 111.008 24.5807 111.008 23.8516V10.3359C111.034 9.60677 111.307 9.00781 111.828 8.53906C112.349 8.04427 112.974 7.79688 113.703 7.79688ZM110.422 2.71875C110.422 1.98958 110.734 1.36458 111.359 0.84375C111.984 0.322917 112.74 0.0625 113.625 0.0625C114.51 0.0625 115.266 0.322917 115.891 0.84375C116.516 1.36458 116.828 1.98958 116.828 2.71875C116.828 3.47396 116.516 4.11198 115.891 4.63281C115.266 5.15365 114.51 5.41406 113.625 5.41406C112.74 5.41406 111.984 5.15365 111.359 4.63281C110.734 4.11198 110.422 3.47396 110.422 2.71875ZM133.508 7.60156C134.862 7.60156 136.19 7.75781 137.492 8.07031C138.82 8.38281 140.083 8.85156 141.281 9.47656C142.479 10.0755 143.534 10.8828 144.445 11.8984C145.383 12.9141 145.891 14.125 145.969 15.5312V17.1719V23.8516C145.812 25.4141 144.953 26.2604 143.391 26.3906C142.661 26.3906 142.023 26.1562 141.477 25.6875C140.956 25.1927 140.695 24.5807 140.695 23.8516V22.1328V16.7422C140.643 15.9349 140.331 15.2708 139.758 14.75C139.211 14.2031 138.586 13.7734 137.883 13.4609C137.206 13.1484 136.49 12.9141 135.734 12.7578C135.005 12.6016 134.263 12.5234 133.508 12.5234C132.753 12.5234 131.997 12.6016 131.242 12.7578C130.513 12.9141 129.797 13.1484 129.094 13.4609C128.417 13.7734 127.792 14.2031 127.219 14.75C126.672 15.2708 126.372 15.9349 126.32 16.7422V22.1328V23.8516C126.19 25.4141 125.344 26.2604 123.781 26.3906C123.052 26.3906 122.414 26.1562 121.867 25.6875C121.346 25.1927 121.086 24.5807 121.086 23.8516V17.1719V15.5312C121.164 14.125 121.659 12.9141 122.57 11.8984C123.482 10.8828 124.536 10.0755 125.734 9.47656C126.932 8.85156 128.182 8.38281 129.484 8.07031C130.812 7.75781 132.154 7.60156 133.508 7.60156ZM159.406 2.25C160.135 2.25 160.76 2.4974 161.281 2.99219C161.802 3.46094 162.076 4.0599 162.102 4.78906V8.1875H175.383C176.112 8.1875 176.737 8.4349 177.258 8.92969C177.753 9.45052 178 10.0755 178 10.8047C178 11.5339 177.74 12.1589 177.219 12.6797C176.724 13.1745 176.112 13.4219 175.383 13.4219H162.102V14.2031C162.076 15.2708 162.141 16.2604 162.297 17.1719C162.479 18.0573 162.896 18.8516 163.547 19.5547C164.198 20.2578 165.018 20.6354 166.008 20.6875H175.539C176.268 20.7135 176.867 20.987 177.336 21.5078C177.831 22.0286 178.078 22.6536 178.078 23.3828C178.052 24.0859 177.792 24.6849 177.297 25.1797C176.828 25.6484 176.242 25.8958 175.539 25.9219H164.68C162.857 25.8177 161.346 25.2057 160.148 24.0859C158.977 22.9401 158.13 21.5469 157.609 19.9062C157.115 18.2656 156.854 16.5208 156.828 14.6719V13.4219H152.336C151.607 13.4219 150.995 13.1615 150.5 12.6406C149.979 12.1458 149.719 11.5339 149.719 10.8047C149.719 10.0755 149.966 9.46354 150.461 8.96875C150.982 8.44792 151.607 8.1875 152.336 8.1875H156.828V4.78906C156.854 4.08594 157.115 3.5 157.609 3.03125C158.104 2.53646 158.703 2.27604 159.406 2.25Z" fill="#412C86"/>
</svg>
